<svg xmlns="http://www.w3.org/2000/svg" version="1.1" xmlns:xlink="http://www.w3.org/1999/xlink" xmlns:svgjs="http://svgjs.dev/svgjs" width="1000" height="1000" viewBox="0 0 1000 1000"><rect width="1000" height="1000" fill="#000000"></rect><g transform="matrix(0.7,0,0,0.7,149.57575757575756,339.0782502662398)"><svg viewBox="0 0 396 182" data-background-color="#ffffff" preserveAspectRatio="xMidYMid meet" height="459" width="1000" xmlns="http://www.w3.org/2000/svg" xmlns:xlink="http://www.w3.org/1999/xlink"><g id="tight-bounds" transform="matrix(1,0,0,1,0.2400000000000091,0.15393231106244798)"><svg viewBox="0 0 395.52 181.6921353778751" height="181.6921353778751" width="395.52"><g><svg viewBox="0 0 395.52 181.6921353778751" height="181.6921353778751" width="395.52"><g><svg viewBox="0 0 395.52 181.6921353778751" height="181.6921353778751" width="395.52"><g id="textblocktransform"><svg viewBox="0 0 395.52 181.6921353778751" height="181.6921353778751" width="395.52" id="textblock"><g><svg viewBox="0 0 395.52 181.6921353778751" height="181.6921353778751" width="395.52"><rect width="395.52" height="181.6921353778751" x="0" y="0" opacity="1" fill="#ffffff" data-fill-palette-color="tertiary"></rect><g transform="matrix(1,0,0,1,23.607599999999998,23.607599999999998)"><svg width="348.3048" viewBox="4.599999904632568 -34.70000076293945 91.29000091552734 35.25" height="134.47693537787512" data-palette-color="#fffdfd"><path d="M4.6-34.2L6.9-34.2 6.9 0 4.6 0 4.6-34.2ZM19.05-34.2L21.55-34.2 9.65-18.45 22.25 0 19.6 0 7.05-18.35 19.05-34.2ZM36.8-34.7Q42.15-34.7 45.17-30.3 48.2-25.9 48.2-17.05L48.2-17.05Q48.2-8.4 45.17-3.93 42.15 0.55 36.8 0.55L36.8 0.55Q31.55 0.55 28.47-3.93 25.4-8.4 25.4-17L25.4-17Q25.4-25.65 28.47-30.18 31.55-34.7 36.8-34.7L36.8-34.7ZM36.8-32.65Q32.6-32.65 30.22-28.83 27.85-25 27.85-17L27.85-17Q27.85-9.15 30.25-5.33 32.65-1.5 36.8-1.5L36.8-1.5Q41.15-1.5 43.47-5.3 45.8-9.1 45.8-17.05L45.8-17.05Q45.8-25.1 43.42-28.88 41.05-32.65 36.8-32.65L36.8-32.65ZM61.2-34.2Q66.95-34.2 70.52-30.6 74.09-27 74.09-17.4L74.09-17.4Q74.09-7.7 70.5-3.85 66.9 0 61.55 0L61.55 0 55.6 0 55.6-34.2 61.2-34.2ZM61.45-32.15L57.9-32.15 57.9-2 61.65-2Q66.09-2 68.87-5.35 71.65-8.7 71.65-17.4L71.65-17.4Q71.65-23.45 70.2-26.7 68.75-29.95 66.55-31.05 64.34-32.15 61.45-32.15L61.45-32.15ZM81.49-34.2L95.64-34.2 95.34-32.15 83.79-32.15 83.79-18.85 93.79-18.85 93.79-16.85 83.79-16.85 83.79-2 95.89-2 95.89 0 81.49 0 81.49-34.2Z" opacity="1" transform="matrix(1,0,0,1,0,0)" fill="#000000" class="wordmark-text-0" data-fill-palette-color="quaternary" id="text-0"></path></svg></g></svg></g></svg></g></svg></g></svg></g><defs></defs></svg><rect width="395.52" height="181.6921353778751" fill="none" stroke="none" visibility="hidden"></rect></g></svg></g></svg>